<?xml version="1.0" standalone="no"?>
<!DOCTYPE svg PUBLIC "-//W3C//DTD SVG 20010904//EN"
 "http://www.w3.org/TR/2001/REC-SVG-20010904/DTD/svg10.dtd">
<svg version="1.0" xmlns="http://www.w3.org/2000/svg"
 width="512.000000pt" height="512.000000pt" viewBox="0 0 512.000000 512.000000"
 preserveAspectRatio="xMidYMid meet">
<metadata>
Created by potrace 1.11, written by Peter Selinger 2001-2013
</metadata>
<g transform="translate(0.000000,512.000000) scale(0.100000,-0.100000)"
fill="#000000" stroke="none">
<path d="M2320 5109 c-491 -47 -981 -246 -1366 -557 -599 -482 -954 -1224
-954 -1992 0 -577 204 -1155 568 -1606 482 -599 1224 -954 1992 -954 577 0
1155 204 1606 568 599 482 954 1224 954 1992 0 577 -204 1155 -568 1606 -433
538 -1071 879 -1767 944 -125 11 -340 11 -465 -1z m943 -882 c69 -41 68 -36
56 -198 -15 -193 -6 -804 15 -1029 55 -598 201 -1389 370 -2008 31 -116 32
-123 15 -132 -10 -6 -26 -10 -37 -10 -36 0 -122 31 -147 53 -49 42 -203 450
-325 858 -29 96 -53 175 -55 177 -1 1 -74 -7 -161 -19 -131 -18 -220 -23 -498
-25 l-340 -4 -161 -317 c-240 -475 -332 -639 -371 -669 -40 -31 -112 -54 -168
-54 -78 0 -78 2 11 187 124 255 401 889 392 897 -2 2 -44 12 -94 23 l-90 19
-28 55 c-21 42 -29 71 -30 120 -2 75 -11 72 129 40 50 -11 117 -22 149 -23
l58 -3 79 195 c216 535 418 1114 522 1494 20 71 37 130 39 132 2 2 118 64 257
139 l255 136 58 -5 c37 -3 72 -13 100 -29z"/>
<path d="M2807 3470 c-206 -545 -371 -960 -490 -1228 l-46 -102 82 5 c191 13
328 27 412 41 130 22 305 64 305 74 0 5 -22 99 -49 208 -83 333 -159 727 -189
982 l-8 65 -17 -45z"/>
</g>
</svg>
